<?xml version="1.0" standalone="no"?>
<!DOCTYPE svg PUBLIC "-//W3C//DTD SVG 20010904//EN"
 "http://www.w3.org/TR/2001/REC-SVG-20010904/DTD/svg10.dtd">
<svg version="1.0" xmlns="http://www.w3.org/2000/svg"
 width="1280.000000pt" height="1266.000000pt" viewBox="0 0 1280.000000 1266.000000"
 preserveAspectRatio="xMidYMid meet">
<metadata>
Created by potrace 1.15, written by Peter Selinger 2001-2017
</metadata>
<g transform="translate(0.000000,1266.000000) scale(0.100000,-0.100000)"
fill="hsl(0, 0%, 10%)" stroke="none">
<path d="M1704 11607 c-903 -579 -1656 -1064 -1673 -1079 l-31 -27 65 -423
c35 -233 101 -715 145 -1073 81 -644 82 -650 108 -676 15 -14 218 -203 452
-420 2160 -2004 3074 -2830 3100 -2803 4 5 47 144 95 309 48 165 113 390 145
500 32 110 113 389 180 620 67 231 160 551 206 710 47 160 86 297 86 305 1 8
-138 236 -310 506 -256 405 -892 1475 -892 1503 0 4 77 169 171 367 804 1693
1040 2197 1033 2204 -5 5 -72 36 -149 68 -77 33 -352 150 -612 261 -259 111
-473 201 -475 200 -2 0 -742 -474 -1644 -1052z"/>
<path d="M8820 12380 c-332 -142 -606 -262 -607 -267 -2 -5 256 -555 573
-1223 317 -668 590 -1245 606 -1282 l30 -67 -192 -333 c-355 -614 -402 -691
-685 -1138 -155 -245 -293 -463 -307 -485 l-25 -40 28 -95 c15 -52 82 -284
149 -515 67 -231 159 -548 205 -705 45 -157 138 -476 205 -710 68 -234 126
-428 129 -432 22 -26 1045 899 2981 2697 266 247 510 475 542 505 l58 55 75
610 c81 650 100 793 170 1244 l44 286 -27 27 c-41 40 -3309 2128 -3329 2127
-10 0 -290 -117 -623 -259z"/>
<path d="M4767 12004 c-30 -60 -611 -1247 -1038 -2121 l-138 -283 878 -1467
c483 -808 883 -1478 890 -1490 6 -13 29 -148 51 -300 70 -494 140 -994 160
-1143 11 -80 24 -179 30 -220 12 -83 59 -452 211 -1635 l102 -799 74 -131 c41
-71 317 -585 614 -1141 l539 -1011 133 -27 c238 -49 630 -134 750 -162 108
-25 117 -29 117 -51 0 -19 62 30 352 278 194 166 361 310 371 319 18 17 16 22
-47 149 -37 72 -70 131 -75 131 -4 0 -32 58 -62 130 -30 71 -60 130 -66 130
-7 0 -13 7 -13 16 0 9 -6 14 -13 11 -7 -2 -143 -99 -302 -213 -160 -115 -304
-219 -321 -232 l-32 -22 -92 273 c-262 777 -401 1191 -528 1567 l-139 415 33
620 c18 341 35 654 39 695 3 41 35 424 70 850 36 426 76 917 90 1090 14 173
29 326 33 340 5 14 401 707 880 1541 l872 1516 -166 324 c-319 624 -420 829
-716 1454 l-297 630 -873 2 c-878 2 -2045 17 -2235 29 l-101 7 -35 -69z"/>
<path d="M4752 7128 c-10 -29 -171 -493 -357 -1031 l-338 -978 76 -357 c42
-196 153 -717 246 -1157 94 -440 174 -811 178 -825 5 -15 76 -78 188 -166 99
-78 181 -141 182 -140 1 1 -33 138 -76 303 l-79 301 14 169 c8 92 38 474 68
848 l55 680 60 330 c59 327 205 1142 237 1325 l17 96 -222 327 c-123 180 -224
327 -226 327 -2 0 -12 -24 -23 -52z"/>
<path d="M7753 6750 l-223 -329 49 -273 c28 -150 99 -552 160 -893 l111 -620
50 -635 c28 -349 57 -723 66 -830 l16 -196 -76 -290 c-42 -160 -76 -296 -76
-302 0 -7 82 52 182 131 l181 142 83 385 c104 490 411 1929 416 1955 5 23 30
-50 -381 1137 -177 510 -321 932 -321 938 0 5 -3 10 -7 9 -5 0 -108 -148 -230
-329z"/>
</g>
</svg>
