<svg width="220" height="38" fill="none" xmlns="http://www.w3.org/2000/svg"><path fill-rule="evenodd" clip-rule="evenodd" d="M114.86 16.936c2.968 1.485 4.503 3.257 4.569 5.254-.258 3.345-2.497 5.266-6.553 5.267a12.33 12.33 0 0 1-3.776-.791c.275-.928.48-1.892.608-2.869h.036c.477 1.797 1.735 2.744 3.745 2.813 2.032-.072 3.135-1.042 3.282-2.893 0-1.317-1.169-2.518-3.475-3.566-2.759-1.282-4.158-3.055-4.158-5.261.127-3.276 1.974-4.963 5.636-5.156 1.456.06 2.728.412 3.783 1.04-.117.302-.257.667-.423 1.102-.135.412-.24.739-.315.994-.715-1.454-1.771-2.189-3.144-2.189-2.017.073-3.083 1.072-3.083 2.892 0 1.128 1.068 2.23 3.268 3.363zm-45.95-6.688v15.38c0 .143.113.266.255.278.81.068 1.711.068 2.657 0 .772-.06 1.714-.17 2.877-.338a4.3 4.3 0 0 0-.063.763c0 .233.024.517.069.824h-9.153V10.25c.174.016.399.043.677.081.406.07.823.072 1.072.005l.823-.003c.313-.043.573-.073.787-.085zm10.973.84c-.489.069-.814.07-1.048.004h-.824c-.29-.04-.513-.065-.68-.081v16.144h3.186V11.007c-.183.014-.392.04-.634.082zm3.202.59a5.15 5.15 0 0 0-.046-.683h11.982c-.046.23-.047.461-.008.69a2.622 2.622 0 0 0-.001.764 9.878 9.878 0 0 1-1.033-.09c-1.29-.128-2.3-.193-3.007-.193a.28.28 0 0 0-.28.28v14.71h-3.091v-14.71a.28.28 0 0 0-.28-.28c-.971 0-2.237.098-3.745.289h-.532c.027-.223.041-.483.041-.777zm14.471-.683v16.16h8.73a5.62 5.62 0 0 1-.065-.777c0-.251.02-.487.055-.703-.594.09-1.256.163-1.966.212-.826.066-1.964.098-3.383.098a.28.28 0 0 1-.279-.28v-6.246a.28.28 0 0 1 .279-.28h2.336c.727.043 1.32.086 1.906.128l.125.01.462.031-.002-.01a22.535 22.535 0 0 0-.044-.195l-.008-1.124c0-.032.004-.062.015-.09l.02-.064c-.823.102-1.575.144-2.474.144h-2.336a.28.28 0 0 1-.279-.28v-5.284a.28.28 0 0 1 .279-.279c1.723 0 3.533.112 5.382.335a3.24 3.24 0 0 1 .001-1.506h-8.754zm27.212 8.87a.27.27 0 0 0-.177.073.274.274 0 0 0-.081.192v7.025h-3.208V10.993h5.779c3.309 0 4.949 1.264 5.01 3.863.024 1.415-.365 2.54-1.155 3.345-1.087 1.107-2.99 1.669-5.655 1.669-.164 0-.328-.003-.513-.006zm.363-.788c-.135 0-.268-.01-.391-.027a.266.266 0 0 1-.23-.264v-6.812c0-.147.121-.268.268-.268h1.534c1.575.212 2.434 1.426 2.57 3.609-.136 1.936-.945 3.12-2.401 3.537-.501.15-.956.225-1.35.225zm19.793-8.084v16.162h8.744a5.899 5.899 0 0 1-.064-.79c0-.256.018-.496.057-.715-.601.092-1.267.166-1.979.215-.833.065-1.936.097-3.376.097a.268.268 0 0 1-.269-.267v-6.238c0-.146.12-.267.269-.267h2.59c.973.059 1.858.115 2.67.17l-.008-.035a4.69 4.69 0 0 0-.043-.187l-.008-1.12c0-.03.004-.059.014-.084l.027-.082c-.809.096-1.7.145-2.652.145h-2.59a.269.269 0 0 1-.269-.266v-5.278c0-.147.121-.267.269-.267 1.726 0 3.539.114 5.389.337a3.26 3.26 0 0 1 .003-1.53h-8.774zm10.991 16.162h5.324c5.502-.311 8.45-3.197 8.761-8.576-.251-4.786-2.619-7.273-7.237-7.588l-6.848.002v16.162zm10.493-8.561c0-4.442-1.996-6.697-5.928-6.697h-1.188a.269.269 0 0 0-.266.268v13.818c0 .146.121.267.266.267h1.05c2.01 0 3.543-.656 4.559-1.948.998-1.274 1.507-3.194 1.507-5.708zm-32.526 8.561V10.993h8.769a3.317 3.317 0 0 0-.001 1.53 45.305 45.305 0 0 0-5.39-.337.268.268 0 0 0-.267.267v5.278c0 .146.121.266.267.266h2.592c.953 0 1.844-.05 2.65-.145l-.019.065-.005.017a.236.236 0 0 0-.015.085l.008 1.119c.02.081.037.156.051.222-.812-.055-1.696-.111-2.67-.17h-2.592a.269.269 0 0 0-.267.267v6.238c0 .146.121.267.267.267 1.44 0 2.546-.032 3.378-.097a24.127 24.127 0 0 0 1.979-.215c-.038.219-.057.46-.057.716 0 .225.023.495.065.789h-8.743z" fill="#B6BDD3"/><path d="M59.466 18.824l-7.97-7.968-3.393 4.309 3.66 3.66a.87.87 0 0 1 0 1.227l-1.06 1.058s.714 1.068.747 1.133c.165.33.205 1.106-.263 1.46l-8.323 6.39c-.002 2.144-.005 6.553-.002 6.555.002 0 16.604-16.596 16.604-16.596a.87.87 0 0 0 0-1.228zm-18.51 1.003a.87.87 0 0 1 0-1.226l1.06-1.06-.724-1.041a1.141 1.141 0 0 1 .24-1.55l8.325-6.39.005-6.551-.004-.003L49.853 2l-16.6 16.601a.87.87 0 0 0 .001 1.227l7.968 7.969 3.395-4.309-3.66-3.661z" fill="#B6BDD3"/><path fill-rule="evenodd" clip-rule="evenodd" d="M53.597 6.051c.182-.142.314-.2.455-.2.17 0 .332.102.407.254.135.279-.061.529-.158.651l-.002.004-7.295 9.259c-.065.083-.071.269-.01.355 0 0 3.936 5.71 4.072 5.905.192.277.19 1.01-.215 1.317L39.12 32.6c-.164.127-.294.202-.477.203a.48.48 0 0 1-.384-.252c-.137-.278.063-.536.16-.66l7.292-9.255c.066-.089.074-.266.014-.357l-4.07-5.854a1.007 1.007 0 0 1 .21-1.369l11.73-9.005zm.836.068a.433.433 0 0 0-.38-.237c-.134 0-.26.056-.437.194l-11.73 9.005a.978.978 0 0 0-.205 1.327l4.07 5.854a.39.39 0 0 1-.014.393l-7.293 9.255c-.092.119-.285.367-.156.628a.45.45 0 0 0 .359.236c.17-.002.293-.07.457-.197l11.729-9.004c.382-.29.4-1 .208-1.276l-4.06-5.887-.012-.019c-.068-.096-.062-.297.012-.39l7.295-9.26c.1-.128.283-.36.157-.622z" fill="#B6BDD3"/><path d="M50.645 22.387c.094.143.18.685-.058.864l-11.73 9.005c-.1.076-.163.112-.19.11-.041.002-.012-.07.096-.208l7.291-9.253a.786.786 0 0 0 .028-.873l-4.07-5.858s8.538 6.069 8.633 6.213z" fill="#B6BDD3"/><path d="M50.645 22.387l-4.009-5.766a.781.781 0 0 1 .026-.87l7.293-9.258c.108-.138.136-.207.097-.207-.029 0-.093.034-.19.111l-11.73 9.005a.572.572 0 0 0-.12.772l8.633 6.213z" fill="#B6BDD3"/></svg>