<svg width="220" height="38" fill="none" xmlns="http://www.w3.org/2000/svg"><path fill-rule="evenodd" clip-rule="evenodd" d="M217.276 14.383c0 .766.596 1.362 1.362 1.362.681 0 1.277-.596 1.362-1.362 0-.766-.596-1.361-1.362-1.361-.766 0-1.362.595-1.362 1.361zm.256.085c0-.595.51-1.106 1.106-1.106.596 0 1.021.425 1.107 1.106 0 .596-.511 1.107-1.107 1.107s-1.106-.511-1.106-1.107zm1.787.681h-.341l-.255-.51h-.425v.51h-.256v-1.447h.681c.341 0 .511.17.511.51 0 .171-.085.427-.341.427l.426.51zm-.341-1.021c0 .17-.17.255-.255.255v-.085h-.425v-.425h.425c.17 0 .255.085.255.255z" fill="#B6BDD3"/><path d="M77.106 12.707h3.489v9.446h6.042v3.064h-9.531v-12.51z" fill="#B6BDD3"/><path fill-rule="evenodd" clip-rule="evenodd" d="M96.934 12.452c-3.83 0-6.723 2.894-6.723 6.553 0 3.574 2.808 6.383 6.723 6.383 3.83 0 6.723-2.894 6.723-6.468s-2.893-6.468-6.723-6.468zm-.085 3.149c1.957 0 3.234 1.532 3.234 3.404 0 1.787-1.277 3.319-3.234 3.319-1.873 0-3.149-1.617-3.149-3.404s1.276-3.32 3.149-3.32z" fill="#B6BDD3"/><path d="M107.827 19.686v-6.979h3.489V19.6c0 1.787.936 2.639 2.298 2.639s2.298-.852 2.298-2.553v-7.064h3.489v6.893c0 4-2.298 5.787-5.872 5.787-3.489.085-5.702-1.702-5.702-5.616z" fill="#B6BDD3"/><path fill-rule="evenodd" clip-rule="evenodd" d="M129.613 12.707h-4.851v12.425h4.765c4.511 0 7.149-2.723 7.149-6.298 0-3.574-2.638-6.127-7.063-6.127zm3.404 6.297c0 2.043-1.362 3.15-3.404 3.15v.084h-1.447v-6.382h1.447c2.042 0 3.404 1.191 3.404 3.149z" fill="#B6BDD3"/><path d="M141.612 12.707h9.957v3.064h-6.468v2.042h5.872v2.894h-5.872v4.51h-3.489v-12.51zm14.808 0h3.489v9.446h6.042v3.064h-9.531v-12.51z" fill="#B6BDD3"/><path fill-rule="evenodd" clip-rule="evenodd" d="M178.292 12.622h-3.319l-5.362 12.595h3.575l.851-2.212h4.85l.937 2.212h3.744l-5.276-12.595zm-1.702 4.085l1.361 3.574h-2.808l1.447-3.574zm17.36-4h-5.957v12.425h3.489v-3.745h1.532l2.553 3.745h4l-2.979-4.34c1.532-.681 2.553-1.958 2.553-3.83 0-1.191-.34-2.213-1.106-2.893-.851-.851-2.212-1.362-4.085-1.362zm1.702 4.51c0 .851-.681 1.447-1.872 1.447v.085h-2.298v-2.978h2.298c1.191 0 1.872.425 1.872 1.446z" fill="#B6BDD3"/><path d="M204.077 12.707h10.042v2.979h-6.553v1.872h5.957v2.723h-5.957v1.957h6.638v2.979h-10.127v-12.51zM69.531 20.452c-.51 1.106-1.531 1.872-2.893 1.872-1.872 0-3.149-1.532-3.149-3.404 0-1.787 1.277-3.32 3.149-3.32 1.447 0 2.468.852 2.978 2.043h3.66c-.596-2.978-3.234-5.19-6.553-5.19-3.83 0-6.723 2.893-6.723 6.467s2.808 6.468 6.723 6.468c3.319 0 5.872-2.128 6.553-5.021H69.53v.085zm-32.108 6.186c.297-1.129.178-2.14-.357-2.912-.475-.712-1.307-1.128-2.317-1.128l-19.132-.238a.327.327 0 0 1-.298-.178c-.059-.12-.059-.238-.059-.357.06-.178.238-.356.416-.356l19.31-.238c2.318-.119 4.754-1.96 5.645-4.219l1.13-2.852c.058-.119.058-.237.058-.356A12.495 12.495 0 0 0 29.58 4a12.539 12.539 0 0 0-11.883 8.497c-1.07-.832-2.495-1.248-3.98-1.07-2.675.238-4.754 2.377-5.051 5.05-.06.714 0 1.367.119 1.961C4.446 18.558 1 22.122 1 26.46c0 .416.06.772.06 1.188 0 .178.178.297.356.297H36.71c.178 0 .416-.119.475-.356l.238-.951zm6.06-12.3h-.535c-.119 0-.237.12-.297.239l-.772 2.614c-.297 1.129-.179 2.139.356 2.911.476.713 1.307 1.13 2.317 1.13l4.1.237c.119 0 .238.06.297.178.06.119.06.238.06.357-.06.178-.238.356-.416.356l-4.219.238c-2.317.119-4.753 1.96-5.645 4.218l-.297.773c-.059.119.06.297.238.297h14.557c.179 0 .357-.119.357-.297.237-.891.416-1.842.416-2.852-.06-5.704-4.754-10.398-10.517-10.398z" fill="#B6BDD3"/></svg>